<mxfile host="app.diagrams.net" agent="Mozilla/5.0 (X11; Linux x86_64) AppleWebKit/537.36 (KHTML, like Gecko) Chrome/128.0.0.0 Safari/537.36" version="24.8.0">
  <diagram name="Page-1" id="psaYRLWhJM1OXI5JUv1E">
    <mxGraphModel dx="2680" dy="2569" grid="0" gridSize="10" guides="1" tooltips="1" connect="1" arrows="1" fold="1" page="0" pageScale="1" pageWidth="1100" pageHeight="850" math="0" shadow="0">
      <root>
        <mxCell id="0" />
        <mxCell id="1" parent="0" />
        <mxCell id="mkvjJBD6ZaT9gyc5c3pc-6" value="" style="edgeStyle=orthogonalEdgeStyle;rounded=0;orthogonalLoop=1;jettySize=auto;html=1;" parent="1" source="mkvjJBD6ZaT9gyc5c3pc-4" target="mkvjJBD6ZaT9gyc5c3pc-5" edge="1">
          <mxGeometry relative="1" as="geometry" />
        </mxCell>
        <mxCell id="mkvjJBD6ZaT9gyc5c3pc-4" value="Start" style="strokeWidth=2;html=1;shape=mxgraph.flowchart.start_1;whiteSpace=wrap;fillColor=#d5e8d4;strokeColor=#82b366;" parent="1" vertex="1">
          <mxGeometry x="-330" y="-1868" width="100" height="60" as="geometry" />
        </mxCell>
        <mxCell id="mkvjJBD6ZaT9gyc5c3pc-8" value="" style="edgeStyle=orthogonalEdgeStyle;rounded=0;orthogonalLoop=1;jettySize=auto;html=1;" parent="1" source="mkvjJBD6ZaT9gyc5c3pc-5" target="mkvjJBD6ZaT9gyc5c3pc-7" edge="1">
          <mxGeometry relative="1" as="geometry" />
        </mxCell>
        <mxCell id="mkvjJBD6ZaT9gyc5c3pc-106" style="edgeStyle=orthogonalEdgeStyle;rounded=0;orthogonalLoop=1;jettySize=auto;html=1;exitX=1;exitY=0.75;exitDx=0;exitDy=0;" parent="1" source="mkvjJBD6ZaT9gyc5c3pc-5" edge="1">
          <mxGeometry relative="1" as="geometry">
            <mxPoint x="-200.65217391304327" y="-1709.3478260869565" as="targetPoint" />
          </mxGeometry>
        </mxCell>
        <mxCell id="mkvjJBD6ZaT9gyc5c3pc-5" value="Menu Utama" style="shape=parallelogram;perimeter=parallelogramPerimeter;whiteSpace=wrap;html=1;fixedSize=1;strokeWidth=2;fillColor=#e1d5e7;strokeColor=#9673a6;" parent="1" vertex="1">
          <mxGeometry x="-340" y="-1751" width="120" height="60" as="geometry" />
        </mxCell>
        <mxCell id="mkvjJBD6ZaT9gyc5c3pc-10" value="" style="edgeStyle=orthogonalEdgeStyle;rounded=0;orthogonalLoop=1;jettySize=auto;html=1;" parent="1" source="mkvjJBD6ZaT9gyc5c3pc-7" target="mkvjJBD6ZaT9gyc5c3pc-9" edge="1">
          <mxGeometry relative="1" as="geometry" />
        </mxCell>
        <mxCell id="mkvjJBD6ZaT9gyc5c3pc-14" value="" style="edgeStyle=orthogonalEdgeStyle;rounded=0;orthogonalLoop=1;jettySize=auto;html=1;" parent="1" source="mkvjJBD6ZaT9gyc5c3pc-7" target="mkvjJBD6ZaT9gyc5c3pc-13" edge="1">
          <mxGeometry relative="1" as="geometry" />
        </mxCell>
        <mxCell id="mkvjJBD6ZaT9gyc5c3pc-7" value="Register" style="rhombus;whiteSpace=wrap;html=1;strokeWidth=2;fillColor=#fff2cc;strokeColor=#d6b656;" parent="1" vertex="1">
          <mxGeometry x="-320" y="-1621" width="80" height="80" as="geometry" />
        </mxCell>
        <mxCell id="mkvjJBD6ZaT9gyc5c3pc-12" value="" style="edgeStyle=orthogonalEdgeStyle;rounded=0;orthogonalLoop=1;jettySize=auto;html=1;" parent="1" source="mkvjJBD6ZaT9gyc5c3pc-9" target="mkvjJBD6ZaT9gyc5c3pc-11" edge="1">
          <mxGeometry relative="1" as="geometry" />
        </mxCell>
        <mxCell id="mkvjJBD6ZaT9gyc5c3pc-18" value="" style="edgeStyle=orthogonalEdgeStyle;rounded=0;orthogonalLoop=1;jettySize=auto;html=1;" parent="1" source="mkvjJBD6ZaT9gyc5c3pc-9" target="mkvjJBD6ZaT9gyc5c3pc-17" edge="1">
          <mxGeometry relative="1" as="geometry" />
        </mxCell>
        <mxCell id="mkvjJBD6ZaT9gyc5c3pc-9" value="Login" style="rhombus;whiteSpace=wrap;html=1;strokeWidth=2;fillColor=#fff2cc;strokeColor=#d6b656;" parent="1" vertex="1">
          <mxGeometry x="-480" y="-1621" width="80" height="80" as="geometry" />
        </mxCell>
        <mxCell id="mkvjJBD6ZaT9gyc5c3pc-88" value="" style="edgeStyle=orthogonalEdgeStyle;rounded=0;orthogonalLoop=1;jettySize=auto;html=1;" parent="1" source="mkvjJBD6ZaT9gyc5c3pc-11" target="mkvjJBD6ZaT9gyc5c3pc-87" edge="1">
          <mxGeometry relative="1" as="geometry" />
        </mxCell>
        <mxCell id="mkvjJBD6ZaT9gyc5c3pc-11" value="Keluar" style="rhombus;whiteSpace=wrap;html=1;strokeWidth=2;fillColor=#fff2cc;strokeColor=#d6b656;" parent="1" vertex="1">
          <mxGeometry x="-640" y="-1621" width="80" height="80" as="geometry" />
        </mxCell>
        <mxCell id="mkvjJBD6ZaT9gyc5c3pc-16" value="" style="edgeStyle=orthogonalEdgeStyle;rounded=0;orthogonalLoop=1;jettySize=auto;html=1;" parent="1" source="mkvjJBD6ZaT9gyc5c3pc-13" target="mkvjJBD6ZaT9gyc5c3pc-15" edge="1">
          <mxGeometry relative="1" as="geometry" />
        </mxCell>
        <mxCell id="mkvjJBD6ZaT9gyc5c3pc-13" value="Input Username dan Password" style="shape=parallelogram;perimeter=parallelogramPerimeter;whiteSpace=wrap;html=1;fixedSize=1;strokeWidth=2;fillColor=#e1d5e7;strokeColor=#9673a6;" parent="1" vertex="1">
          <mxGeometry x="-355.5" y="-1479" width="151" height="59" as="geometry" />
        </mxCell>
        <mxCell id="mkvjJBD6ZaT9gyc5c3pc-142" style="edgeStyle=orthogonalEdgeStyle;rounded=0;orthogonalLoop=1;jettySize=auto;html=1;exitX=1;exitY=0.5;exitDx=0;exitDy=0;entryX=1;entryY=0.25;entryDx=0;entryDy=0;" parent="1" source="mkvjJBD6ZaT9gyc5c3pc-15" target="mkvjJBD6ZaT9gyc5c3pc-5" edge="1">
          <mxGeometry relative="1" as="geometry">
            <Array as="points">
              <mxPoint x="-169" y="-1310" />
              <mxPoint x="-169" y="-1735" />
            </Array>
          </mxGeometry>
        </mxCell>
        <mxCell id="mkvjJBD6ZaT9gyc5c3pc-15" value="Data Disimpan" style="whiteSpace=wrap;html=1;strokeWidth=2;fillColor=#f5f5f5;fontColor=#333333;strokeColor=#666666;" parent="1" vertex="1">
          <mxGeometry x="-340" y="-1340.5" width="120" height="60" as="geometry" />
        </mxCell>
        <mxCell id="mkvjJBD6ZaT9gyc5c3pc-22" value="" style="edgeStyle=orthogonalEdgeStyle;rounded=0;orthogonalLoop=1;jettySize=auto;html=1;" parent="1" source="mkvjJBD6ZaT9gyc5c3pc-17" target="mkvjJBD6ZaT9gyc5c3pc-21" edge="1">
          <mxGeometry relative="1" as="geometry" />
        </mxCell>
        <mxCell id="mkvjJBD6ZaT9gyc5c3pc-17" value="Input Username dan Password" style="shape=parallelogram;perimeter=parallelogramPerimeter;whiteSpace=wrap;html=1;fixedSize=1;strokeWidth=2;fillColor=#e1d5e7;strokeColor=#9673a6;" parent="1" vertex="1">
          <mxGeometry x="-516.5" y="-1479" width="153" height="59" as="geometry" />
        </mxCell>
        <mxCell id="mkvjJBD6ZaT9gyc5c3pc-24" value="" style="edgeStyle=orthogonalEdgeStyle;rounded=0;orthogonalLoop=1;jettySize=auto;html=1;" parent="1" source="mkvjJBD6ZaT9gyc5c3pc-21" target="mkvjJBD6ZaT9gyc5c3pc-23" edge="1">
          <mxGeometry relative="1" as="geometry" />
        </mxCell>
        <mxCell id="mkvjJBD6ZaT9gyc5c3pc-26" value="" style="edgeStyle=orthogonalEdgeStyle;rounded=0;orthogonalLoop=1;jettySize=auto;html=1;" parent="1" source="mkvjJBD6ZaT9gyc5c3pc-21" target="mkvjJBD6ZaT9gyc5c3pc-25" edge="1">
          <mxGeometry relative="1" as="geometry" />
        </mxCell>
        <mxCell id="mkvjJBD6ZaT9gyc5c3pc-21" value="Berhasil Login?" style="rhombus;whiteSpace=wrap;html=1;strokeWidth=2;fillColor=#fff2cc;strokeColor=#d6b656;" parent="1" vertex="1">
          <mxGeometry x="-480" y="-1350.5" width="80" height="80" as="geometry" />
        </mxCell>
        <mxCell id="mkvjJBD6ZaT9gyc5c3pc-31" value="" style="edgeStyle=orthogonalEdgeStyle;rounded=0;orthogonalLoop=1;jettySize=auto;html=1;" parent="1" source="mkvjJBD6ZaT9gyc5c3pc-23" target="mkvjJBD6ZaT9gyc5c3pc-30" edge="1">
          <mxGeometry relative="1" as="geometry" />
        </mxCell>
        <mxCell id="mkvjJBD6ZaT9gyc5c3pc-33" value="" style="edgeStyle=orthogonalEdgeStyle;rounded=0;orthogonalLoop=1;jettySize=auto;html=1;" parent="1" source="mkvjJBD6ZaT9gyc5c3pc-23" target="mkvjJBD6ZaT9gyc5c3pc-32" edge="1">
          <mxGeometry relative="1" as="geometry" />
        </mxCell>
        <mxCell id="mkvjJBD6ZaT9gyc5c3pc-23" value="Admin?" style="rhombus;whiteSpace=wrap;html=1;strokeWidth=2;fillColor=#fff2cc;strokeColor=#d6b656;" parent="1" vertex="1">
          <mxGeometry x="-480" y="-1205" width="80" height="80" as="geometry" />
        </mxCell>
        <mxCell id="mkvjJBD6ZaT9gyc5c3pc-29" style="edgeStyle=orthogonalEdgeStyle;rounded=0;orthogonalLoop=1;jettySize=auto;html=1;exitX=0.5;exitY=0;exitDx=0;exitDy=0;entryX=0;entryY=0.5;entryDx=0;entryDy=0;" parent="1" target="mkvjJBD6ZaT9gyc5c3pc-17" edge="1">
          <mxGeometry relative="1" as="geometry">
            <mxPoint x="-551.5" y="-1453" as="targetPoint" />
            <mxPoint x="-621" y="-1338.25" as="sourcePoint" />
            <Array as="points">
              <mxPoint x="-621" y="-1449" />
              <mxPoint x="-550" y="-1449" />
            </Array>
          </mxGeometry>
        </mxCell>
        <mxCell id="mkvjJBD6ZaT9gyc5c3pc-107" style="edgeStyle=orthogonalEdgeStyle;rounded=0;orthogonalLoop=1;jettySize=auto;html=1;exitX=1;exitY=0.75;exitDx=0;exitDy=0;" parent="1" source="mkvjJBD6ZaT9gyc5c3pc-25" edge="1">
          <mxGeometry relative="1" as="geometry">
            <mxPoint x="-524.1304347826085" y="-1299.782608695652" as="targetPoint" />
          </mxGeometry>
        </mxCell>
        <mxCell id="mkvjJBD6ZaT9gyc5c3pc-25" value="Username atau password salah!" style="shape=parallelogram;perimeter=parallelogramPerimeter;whiteSpace=wrap;html=1;fixedSize=1;strokeWidth=2;fillColor=#e1d5e7;strokeColor=#9673a6;" parent="1" vertex="1">
          <mxGeometry x="-680" y="-1338.25" width="135" height="55.5" as="geometry" />
        </mxCell>
        <mxCell id="mkvjJBD6ZaT9gyc5c3pc-35" value="" style="edgeStyle=orthogonalEdgeStyle;rounded=0;orthogonalLoop=1;jettySize=auto;html=1;" parent="1" source="mkvjJBD6ZaT9gyc5c3pc-30" target="mkvjJBD6ZaT9gyc5c3pc-34" edge="1">
          <mxGeometry relative="1" as="geometry" />
        </mxCell>
        <mxCell id="mkvjJBD6ZaT9gyc5c3pc-30" value="Menu Admin" style="shape=parallelogram;perimeter=parallelogramPerimeter;whiteSpace=wrap;html=1;fixedSize=1;strokeWidth=2;fillColor=#e1d5e7;strokeColor=#9673a6;" parent="1" vertex="1">
          <mxGeometry x="-500" y="-1054" width="120" height="60" as="geometry" />
        </mxCell>
        <mxCell id="mkvjJBD6ZaT9gyc5c3pc-73" value="" style="edgeStyle=orthogonalEdgeStyle;rounded=0;orthogonalLoop=1;jettySize=auto;html=1;" parent="1" source="mkvjJBD6ZaT9gyc5c3pc-32" target="mkvjJBD6ZaT9gyc5c3pc-72" edge="1">
          <mxGeometry relative="1" as="geometry" />
        </mxCell>
        <mxCell id="mkvjJBD6ZaT9gyc5c3pc-32" value="Menu user" style="shape=parallelogram;perimeter=parallelogramPerimeter;whiteSpace=wrap;html=1;fixedSize=1;strokeWidth=2;fillColor=#e1d5e7;strokeColor=#9673a6;" parent="1" vertex="1">
          <mxGeometry x="-273" y="-1054" width="120" height="60" as="geometry" />
        </mxCell>
        <mxCell id="mkvjJBD6ZaT9gyc5c3pc-37" value="" style="edgeStyle=orthogonalEdgeStyle;rounded=0;orthogonalLoop=1;jettySize=auto;html=1;" parent="1" source="mkvjJBD6ZaT9gyc5c3pc-34" target="mkvjJBD6ZaT9gyc5c3pc-36" edge="1">
          <mxGeometry relative="1" as="geometry" />
        </mxCell>
        <mxCell id="mkvjJBD6ZaT9gyc5c3pc-45" value="" style="edgeStyle=orthogonalEdgeStyle;rounded=0;orthogonalLoop=1;jettySize=auto;html=1;" parent="1" source="mkvjJBD6ZaT9gyc5c3pc-34" target="mkvjJBD6ZaT9gyc5c3pc-44" edge="1">
          <mxGeometry relative="1" as="geometry" />
        </mxCell>
        <mxCell id="mkvjJBD6ZaT9gyc5c3pc-34" value="Tambah Customer" style="rhombus;whiteSpace=wrap;html=1;strokeWidth=2;fillColor=#fff2cc;strokeColor=#d6b656;" parent="1" vertex="1">
          <mxGeometry x="-480" y="-924" width="80" height="80" as="geometry" />
        </mxCell>
        <mxCell id="mkvjJBD6ZaT9gyc5c3pc-39" value="" style="edgeStyle=orthogonalEdgeStyle;rounded=0;orthogonalLoop=1;jettySize=auto;html=1;" parent="1" source="mkvjJBD6ZaT9gyc5c3pc-36" target="mkvjJBD6ZaT9gyc5c3pc-38" edge="1">
          <mxGeometry relative="1" as="geometry" />
        </mxCell>
        <mxCell id="mkvjJBD6ZaT9gyc5c3pc-49" value="" style="edgeStyle=orthogonalEdgeStyle;rounded=0;orthogonalLoop=1;jettySize=auto;html=1;" parent="1" source="mkvjJBD6ZaT9gyc5c3pc-36" target="mkvjJBD6ZaT9gyc5c3pc-48" edge="1">
          <mxGeometry relative="1" as="geometry" />
        </mxCell>
        <mxCell id="mkvjJBD6ZaT9gyc5c3pc-36" value="Tampilkan Customer" style="rhombus;whiteSpace=wrap;html=1;strokeWidth=2;fillColor=#fff2cc;strokeColor=#d6b656;" parent="1" vertex="1">
          <mxGeometry x="-480" y="-764" width="80" height="80" as="geometry" />
        </mxCell>
        <mxCell id="mkvjJBD6ZaT9gyc5c3pc-41" value="" style="edgeStyle=orthogonalEdgeStyle;rounded=0;orthogonalLoop=1;jettySize=auto;html=1;" parent="1" source="mkvjJBD6ZaT9gyc5c3pc-38" target="mkvjJBD6ZaT9gyc5c3pc-40" edge="1">
          <mxGeometry relative="1" as="geometry" />
        </mxCell>
        <mxCell id="mkvjJBD6ZaT9gyc5c3pc-59" value="" style="edgeStyle=orthogonalEdgeStyle;rounded=0;orthogonalLoop=1;jettySize=auto;html=1;" parent="1" source="mkvjJBD6ZaT9gyc5c3pc-38" target="mkvjJBD6ZaT9gyc5c3pc-58" edge="1">
          <mxGeometry relative="1" as="geometry" />
        </mxCell>
        <mxCell id="mkvjJBD6ZaT9gyc5c3pc-38" value="Ubah Customer" style="rhombus;whiteSpace=wrap;html=1;strokeWidth=2;fillColor=#fff2cc;strokeColor=#d6b656;" parent="1" vertex="1">
          <mxGeometry x="-480" y="-605" width="80" height="80" as="geometry" />
        </mxCell>
        <mxCell id="mkvjJBD6ZaT9gyc5c3pc-43" value="" style="edgeStyle=orthogonalEdgeStyle;rounded=0;orthogonalLoop=1;jettySize=auto;html=1;" parent="1" source="mkvjJBD6ZaT9gyc5c3pc-40" target="mkvjJBD6ZaT9gyc5c3pc-42" edge="1">
          <mxGeometry relative="1" as="geometry" />
        </mxCell>
        <mxCell id="mkvjJBD6ZaT9gyc5c3pc-63" value="" style="edgeStyle=orthogonalEdgeStyle;rounded=0;orthogonalLoop=1;jettySize=auto;html=1;" parent="1" source="mkvjJBD6ZaT9gyc5c3pc-40" target="mkvjJBD6ZaT9gyc5c3pc-62" edge="1">
          <mxGeometry relative="1" as="geometry" />
        </mxCell>
        <mxCell id="mkvjJBD6ZaT9gyc5c3pc-40" value="Hapus Customer" style="rhombus;whiteSpace=wrap;html=1;strokeWidth=2;fillColor=#fff2cc;strokeColor=#d6b656;" parent="1" vertex="1">
          <mxGeometry x="-480" y="-444" width="80" height="80" as="geometry" />
        </mxCell>
        <mxCell id="mkvjJBD6ZaT9gyc5c3pc-66" style="edgeStyle=orthogonalEdgeStyle;rounded=0;orthogonalLoop=1;jettySize=auto;html=1;exitX=0;exitY=0.5;exitDx=0;exitDy=0;" parent="1" source="mkvjJBD6ZaT9gyc5c3pc-42" target="mkvjJBD6ZaT9gyc5c3pc-30" edge="1">
          <mxGeometry relative="1" as="geometry">
            <mxPoint x="-982.7142857142856" y="-1016.7142857142856" as="targetPoint" />
            <Array as="points">
              <mxPoint x="-983" y="-244" />
              <mxPoint x="-983" y="-1024" />
            </Array>
          </mxGeometry>
        </mxCell>
        <mxCell id="mkvjJBD6ZaT9gyc5c3pc-86" style="edgeStyle=orthogonalEdgeStyle;rounded=0;orthogonalLoop=1;jettySize=auto;html=1;exitX=1;exitY=0.5;exitDx=0;exitDy=0;endArrow=none;endFill=0;" parent="1" source="mkvjJBD6ZaT9gyc5c3pc-42" edge="1">
          <mxGeometry relative="1" as="geometry">
            <mxPoint x="138" y="-646" as="targetPoint" />
          </mxGeometry>
        </mxCell>
        <mxCell id="mkvjJBD6ZaT9gyc5c3pc-42" value="Logout" style="rhombus;whiteSpace=wrap;html=1;strokeWidth=2;fillColor=#fff2cc;strokeColor=#d6b656;" parent="1" vertex="1">
          <mxGeometry x="-480" y="-284" width="80" height="80" as="geometry" />
        </mxCell>
        <mxCell id="mkvjJBD6ZaT9gyc5c3pc-47" value="" style="edgeStyle=orthogonalEdgeStyle;rounded=0;orthogonalLoop=1;jettySize=auto;html=1;" parent="1" source="mkvjJBD6ZaT9gyc5c3pc-44" target="mkvjJBD6ZaT9gyc5c3pc-46" edge="1">
          <mxGeometry relative="1" as="geometry" />
        </mxCell>
        <mxCell id="mkvjJBD6ZaT9gyc5c3pc-44" value="input data customer" style="shape=parallelogram;perimeter=parallelogramPerimeter;whiteSpace=wrap;html=1;fixedSize=1;strokeWidth=2;fillColor=#e1d5e7;strokeColor=#9673a6;" parent="1" vertex="1">
          <mxGeometry x="-677" y="-913" width="105" height="58" as="geometry" />
        </mxCell>
        <mxCell id="mkvjJBD6ZaT9gyc5c3pc-67" style="edgeStyle=orthogonalEdgeStyle;rounded=0;orthogonalLoop=1;jettySize=auto;html=1;exitX=0;exitY=0.5;exitDx=0;exitDy=0;endArrow=none;endFill=0;" parent="1" source="mkvjJBD6ZaT9gyc5c3pc-46" edge="1">
          <mxGeometry relative="1" as="geometry">
            <mxPoint x="-983" y="-883.8571428571429" as="targetPoint" />
          </mxGeometry>
        </mxCell>
        <mxCell id="mkvjJBD6ZaT9gyc5c3pc-46" value="Tambah data customer" style="whiteSpace=wrap;html=1;strokeWidth=2;fillColor=#f5f5f5;fontColor=#333333;strokeColor=#666666;" parent="1" vertex="1">
          <mxGeometry x="-909.5" y="-914" width="120" height="60" as="geometry" />
        </mxCell>
        <mxCell id="mkvjJBD6ZaT9gyc5c3pc-57" style="edgeStyle=orthogonalEdgeStyle;rounded=0;orthogonalLoop=1;jettySize=auto;html=1;exitX=1;exitY=0.75;exitDx=0;exitDy=0;" parent="1" source="mkvjJBD6ZaT9gyc5c3pc-48" edge="1">
          <mxGeometry relative="1" as="geometry">
            <mxPoint x="-524.9310344827586" y="-711.6206896551723" as="targetPoint" />
          </mxGeometry>
        </mxCell>
        <mxCell id="mkvjJBD6ZaT9gyc5c3pc-68" style="edgeStyle=orthogonalEdgeStyle;rounded=0;orthogonalLoop=1;jettySize=auto;html=1;exitX=0;exitY=0.5;exitDx=0;exitDy=0;endArrow=none;endFill=0;" parent="1" source="mkvjJBD6ZaT9gyc5c3pc-48" edge="1">
          <mxGeometry relative="1" as="geometry">
            <mxPoint x="-983" y="-723.8571428571429" as="targetPoint" />
          </mxGeometry>
        </mxCell>
        <mxCell id="mkvjJBD6ZaT9gyc5c3pc-48" value="Tabel Data Customer, informasi es teh, total pesanan" style="shape=parallelogram;perimeter=parallelogramPerimeter;whiteSpace=wrap;html=1;fixedSize=1;strokeWidth=2;fillColor=#e1d5e7;strokeColor=#9673a6;" parent="1" vertex="1">
          <mxGeometry x="-691" y="-754.75" width="150" height="61.5" as="geometry" />
        </mxCell>
        <mxCell id="mkvjJBD6ZaT9gyc5c3pc-61" value="" style="edgeStyle=orthogonalEdgeStyle;rounded=0;orthogonalLoop=1;jettySize=auto;html=1;" parent="1" source="mkvjJBD6ZaT9gyc5c3pc-58" target="mkvjJBD6ZaT9gyc5c3pc-60" edge="1">
          <mxGeometry relative="1" as="geometry" />
        </mxCell>
        <mxCell id="mkvjJBD6ZaT9gyc5c3pc-58" value="input mengubah data customer terpilih" style="shape=parallelogram;perimeter=parallelogramPerimeter;whiteSpace=wrap;html=1;fixedSize=1;strokeWidth=2;fillColor=#e1d5e7;strokeColor=#9673a6;" parent="1" vertex="1">
          <mxGeometry x="-693" y="-596" width="153" height="62" as="geometry" />
        </mxCell>
        <mxCell id="mkvjJBD6ZaT9gyc5c3pc-69" style="edgeStyle=orthogonalEdgeStyle;rounded=0;orthogonalLoop=1;jettySize=auto;html=1;exitX=0;exitY=0.5;exitDx=0;exitDy=0;endArrow=none;endFill=0;" parent="1" source="mkvjJBD6ZaT9gyc5c3pc-60" edge="1">
          <mxGeometry relative="1" as="geometry">
            <mxPoint x="-983" y="-565" as="targetPoint" />
          </mxGeometry>
        </mxCell>
        <mxCell id="mkvjJBD6ZaT9gyc5c3pc-60" value="mengubah data customer" style="whiteSpace=wrap;html=1;strokeWidth=2;fillColor=#f5f5f5;fontColor=#333333;strokeColor=#666666;" parent="1" vertex="1">
          <mxGeometry x="-909.5" y="-595" width="120" height="60" as="geometry" />
        </mxCell>
        <mxCell id="mkvjJBD6ZaT9gyc5c3pc-65" value="" style="edgeStyle=orthogonalEdgeStyle;rounded=0;orthogonalLoop=1;jettySize=auto;html=1;" parent="1" source="mkvjJBD6ZaT9gyc5c3pc-62" target="mkvjJBD6ZaT9gyc5c3pc-64" edge="1">
          <mxGeometry relative="1" as="geometry" />
        </mxCell>
        <mxCell id="mkvjJBD6ZaT9gyc5c3pc-62" value="input pilih customer" style="shape=parallelogram;perimeter=parallelogramPerimeter;whiteSpace=wrap;html=1;fixedSize=1;strokeWidth=2;fillColor=#e1d5e7;strokeColor=#9673a6;" parent="1" vertex="1">
          <mxGeometry x="-696" y="-434" width="143" height="60" as="geometry" />
        </mxCell>
        <mxCell id="mkvjJBD6ZaT9gyc5c3pc-70" style="edgeStyle=orthogonalEdgeStyle;rounded=0;orthogonalLoop=1;jettySize=auto;html=1;exitX=0;exitY=0.5;exitDx=0;exitDy=0;endArrow=none;endFill=0;" parent="1" source="mkvjJBD6ZaT9gyc5c3pc-64" edge="1">
          <mxGeometry relative="1" as="geometry">
            <mxPoint x="-983.5714285714286" y="-403.8571428571429" as="targetPoint" />
          </mxGeometry>
        </mxCell>
        <mxCell id="mkvjJBD6ZaT9gyc5c3pc-64" value="Menghapus data customer" style="whiteSpace=wrap;html=1;strokeWidth=2;fillColor=#f5f5f5;fontColor=#333333;strokeColor=#666666;" parent="1" vertex="1">
          <mxGeometry x="-909.5" y="-434" width="120" height="60" as="geometry" />
        </mxCell>
        <mxCell id="mkvjJBD6ZaT9gyc5c3pc-75" value="" style="edgeStyle=orthogonalEdgeStyle;rounded=0;orthogonalLoop=1;jettySize=auto;html=1;entryX=0.5;entryY=0;entryDx=0;entryDy=0;" parent="1" source="mkvjJBD6ZaT9gyc5c3pc-72" target="mkvjJBD6ZaT9gyc5c3pc-76" edge="1">
          <mxGeometry relative="1" as="geometry">
            <mxPoint x="-213" y="-763.9999999999998" as="targetPoint" />
          </mxGeometry>
        </mxCell>
        <mxCell id="mkvjJBD6ZaT9gyc5c3pc-83" value="" style="edgeStyle=orthogonalEdgeStyle;rounded=0;orthogonalLoop=1;jettySize=auto;html=1;" parent="1" source="mkvjJBD6ZaT9gyc5c3pc-72" target="mkvjJBD6ZaT9gyc5c3pc-82" edge="1">
          <mxGeometry relative="1" as="geometry" />
        </mxCell>
        <mxCell id="mkvjJBD6ZaT9gyc5c3pc-72" value="Variasi Es Teh" style="rhombus;whiteSpace=wrap;html=1;strokeWidth=2;fillColor=#fff2cc;strokeColor=#d6b656;" parent="1" vertex="1">
          <mxGeometry x="-251.5" y="-923" width="77" height="80" as="geometry" />
        </mxCell>
        <mxCell id="mkvjJBD6ZaT9gyc5c3pc-84" style="edgeStyle=orthogonalEdgeStyle;rounded=0;orthogonalLoop=1;jettySize=auto;html=1;exitX=1;exitY=0.5;exitDx=0;exitDy=0;entryX=1;entryY=0.5;entryDx=0;entryDy=0;" parent="1" source="mkvjJBD6ZaT9gyc5c3pc-76" target="mkvjJBD6ZaT9gyc5c3pc-32" edge="1">
          <mxGeometry relative="1" as="geometry">
            <mxPoint x="97" y="-1037" as="targetPoint" />
            <Array as="points">
              <mxPoint x="81" y="-722" />
              <mxPoint x="81" y="-1024" />
            </Array>
          </mxGeometry>
        </mxCell>
        <mxCell id="mkvjJBD6ZaT9gyc5c3pc-85" style="edgeStyle=orthogonalEdgeStyle;rounded=0;orthogonalLoop=1;jettySize=auto;html=1;exitX=0.5;exitY=1;exitDx=0;exitDy=0;entryX=1;entryY=0.5;entryDx=0;entryDy=0;" parent="1" source="mkvjJBD6ZaT9gyc5c3pc-76" target="mkvjJBD6ZaT9gyc5c3pc-5" edge="1">
          <mxGeometry relative="1" as="geometry">
            <Array as="points">
              <mxPoint x="-213" y="-630" />
              <mxPoint x="138" y="-630" />
              <mxPoint x="138" y="-1721" />
            </Array>
          </mxGeometry>
        </mxCell>
        <mxCell id="mkvjJBD6ZaT9gyc5c3pc-76" value="Logout" style="rhombus;whiteSpace=wrap;html=1;strokeWidth=2;fillColor=#fff2cc;strokeColor=#d6b656;" parent="1" vertex="1">
          <mxGeometry x="-253" y="-762" width="80" height="80" as="geometry" />
        </mxCell>
        <mxCell id="mkvjJBD6ZaT9gyc5c3pc-108" style="edgeStyle=orthogonalEdgeStyle;rounded=0;orthogonalLoop=1;jettySize=auto;html=1;exitX=1;exitY=0.75;exitDx=0;exitDy=0;" parent="1" source="mkvjJBD6ZaT9gyc5c3pc-82" edge="1">
          <mxGeometry relative="1" as="geometry">
            <mxPoint x="54" y="-870.25" as="targetPoint" />
          </mxGeometry>
        </mxCell>
        <mxCell id="mkvjJBD6ZaT9gyc5c3pc-144" style="edgeStyle=orthogonalEdgeStyle;rounded=0;orthogonalLoop=1;jettySize=auto;html=1;exitX=1;exitY=0.5;exitDx=0;exitDy=0;endArrow=none;endFill=0;" parent="1" source="mkvjJBD6ZaT9gyc5c3pc-82" edge="1">
          <mxGeometry relative="1" as="geometry">
            <mxPoint x="81.40000000000009" y="-882.96" as="targetPoint" />
          </mxGeometry>
        </mxCell>
        <mxCell id="mkvjJBD6ZaT9gyc5c3pc-82" value="Tabel Informasi es teh" style="shape=parallelogram;perimeter=parallelogramPerimeter;whiteSpace=wrap;html=1;fixedSize=1;strokeWidth=2;fillColor=#e1d5e7;strokeColor=#9673a6;" parent="1" vertex="1">
          <mxGeometry x="-116" y="-913" width="153" height="60" as="geometry" />
        </mxCell>
        <mxCell id="mkvjJBD6ZaT9gyc5c3pc-89" style="edgeStyle=orthogonalEdgeStyle;rounded=0;orthogonalLoop=1;jettySize=auto;html=1;exitX=0.5;exitY=0;exitDx=0;exitDy=0;entryX=0;entryY=0.5;entryDx=0;entryDy=0;" parent="1" source="mkvjJBD6ZaT9gyc5c3pc-87" target="mkvjJBD6ZaT9gyc5c3pc-5" edge="1">
          <mxGeometry relative="1" as="geometry">
            <Array as="points">
              <mxPoint x="-760" y="-1721" />
            </Array>
          </mxGeometry>
        </mxCell>
        <mxCell id="mkvjJBD6ZaT9gyc5c3pc-87" value="Input tidak valid" style="shape=parallelogram;perimeter=parallelogramPerimeter;whiteSpace=wrap;html=1;fixedSize=1;strokeWidth=2;fillColor=#e1d5e7;strokeColor=#9673a6;" parent="1" vertex="1">
          <mxGeometry x="-820" y="-1611" width="120" height="60" as="geometry" />
        </mxCell>
        <mxCell id="mkvjJBD6ZaT9gyc5c3pc-92" value="End" style="strokeWidth=2;html=1;shape=mxgraph.flowchart.start_1;whiteSpace=wrap;fillColor=#d5e8d4;strokeColor=#82b366;" parent="1" vertex="1">
          <mxGeometry x="-330" y="-161" width="100" height="60" as="geometry" />
        </mxCell>
        <mxCell id="mkvjJBD6ZaT9gyc5c3pc-96" value="" style="edgeStyle=orthogonalEdgeStyle;rounded=0;orthogonalLoop=1;jettySize=auto;html=1;exitX=0.5;exitY=1;exitDx=0;exitDy=0;entryX=0.074;entryY=0.504;entryDx=0;entryDy=0;entryPerimeter=0;" parent="1" source="mkvjJBD6ZaT9gyc5c3pc-11" target="mkvjJBD6ZaT9gyc5c3pc-97" edge="1">
          <mxGeometry relative="1" as="geometry">
            <mxPoint x="-330" y="-127" as="targetPoint" />
            <mxPoint x="-600" y="-1541" as="sourcePoint" />
            <Array as="points">
              <mxPoint x="-600" y="-1503" />
              <mxPoint x="-1076" y="-1503" />
              <mxPoint x="-1076" y="-131" />
            </Array>
          </mxGeometry>
        </mxCell>
        <mxCell id="mkvjJBD6ZaT9gyc5c3pc-99" style="edgeStyle=orthogonalEdgeStyle;rounded=0;orthogonalLoop=1;jettySize=auto;html=1;exitX=1;exitY=0.5;exitDx=0;exitDy=0;" parent="1" source="mkvjJBD6ZaT9gyc5c3pc-97" target="mkvjJBD6ZaT9gyc5c3pc-92" edge="1">
          <mxGeometry relative="1" as="geometry" />
        </mxCell>
        <mxCell id="mkvjJBD6ZaT9gyc5c3pc-110" style="edgeStyle=orthogonalEdgeStyle;rounded=0;orthogonalLoop=1;jettySize=auto;html=1;exitX=1;exitY=0.75;exitDx=0;exitDy=0;" parent="1" source="mkvjJBD6ZaT9gyc5c3pc-97" edge="1">
          <mxGeometry relative="1" as="geometry">
            <mxPoint x="-395.0967741935485" y="-119.67741935483855" as="targetPoint" />
          </mxGeometry>
        </mxCell>
        <mxCell id="mkvjJBD6ZaT9gyc5c3pc-97" value="Program berhenti" style="shape=parallelogram;perimeter=parallelogramPerimeter;whiteSpace=wrap;html=1;fixedSize=1;strokeWidth=2;fillColor=#e1d5e7;strokeColor=#9673a6;" parent="1" vertex="1">
          <mxGeometry x="-547" y="-161" width="133" height="59" as="geometry" />
        </mxCell>
        <mxCell id="mkvjJBD6ZaT9gyc5c3pc-100" value="Yes" style="text;html=1;align=center;verticalAlign=middle;resizable=0;points=[];autosize=1;strokeColor=none;fillColor=none;" parent="1" vertex="1">
          <mxGeometry x="-320" y="-1551" width="38" height="26" as="geometry" />
        </mxCell>
        <mxCell id="mkvjJBD6ZaT9gyc5c3pc-101" value="No" style="text;html=1;align=center;verticalAlign=middle;resizable=0;points=[];autosize=1;strokeColor=none;fillColor=none;" parent="1" vertex="1">
          <mxGeometry x="-351" y="-1608" width="33" height="26" as="geometry" />
        </mxCell>
        <mxCell id="mkvjJBD6ZaT9gyc5c3pc-102" value="Yes" style="text;html=1;align=center;verticalAlign=middle;resizable=0;points=[];autosize=1;strokeColor=none;fillColor=none;" parent="1" vertex="1">
          <mxGeometry x="-480" y="-1551" width="38" height="26" as="geometry" />
        </mxCell>
        <mxCell id="mkvjJBD6ZaT9gyc5c3pc-103" value="No" style="text;html=1;align=center;verticalAlign=middle;resizable=0;points=[];autosize=1;strokeColor=none;fillColor=none;" parent="1" vertex="1">
          <mxGeometry x="-513" y="-1608" width="33" height="26" as="geometry" />
        </mxCell>
        <mxCell id="mkvjJBD6ZaT9gyc5c3pc-104" value="No" style="text;html=1;align=center;verticalAlign=middle;resizable=0;points=[];autosize=1;strokeColor=none;fillColor=none;" parent="1" vertex="1">
          <mxGeometry x="-673" y="-1608" width="33" height="26" as="geometry" />
        </mxCell>
        <mxCell id="mkvjJBD6ZaT9gyc5c3pc-105" value="Yes" style="text;html=1;align=center;verticalAlign=middle;resizable=0;points=[];autosize=1;strokeColor=none;fillColor=none;" parent="1" vertex="1">
          <mxGeometry x="-640" y="-1551" width="38" height="26" as="geometry" />
        </mxCell>
        <mxCell id="mkvjJBD6ZaT9gyc5c3pc-111" value="Yes" style="text;html=1;align=center;verticalAlign=middle;resizable=0;points=[];autosize=1;strokeColor=none;fillColor=none;" parent="1" vertex="1">
          <mxGeometry x="-479" y="-1276" width="38" height="26" as="geometry" />
        </mxCell>
        <mxCell id="mkvjJBD6ZaT9gyc5c3pc-112" value="No" style="text;html=1;align=center;verticalAlign=middle;resizable=0;points=[];autosize=1;strokeColor=none;fillColor=none;" parent="1" vertex="1">
          <mxGeometry x="-511" y="-1339" width="33" height="26" as="geometry" />
        </mxCell>
        <mxCell id="mkvjJBD6ZaT9gyc5c3pc-113" value="Yes" style="text;html=1;align=center;verticalAlign=middle;resizable=0;points=[];autosize=1;strokeColor=none;fillColor=none;" parent="1" vertex="1">
          <mxGeometry x="-441" y="-1129" width="38" height="26" as="geometry" />
        </mxCell>
        <mxCell id="mkvjJBD6ZaT9gyc5c3pc-116" value="No" style="text;html=1;align=center;verticalAlign=middle;resizable=0;points=[];autosize=1;strokeColor=none;fillColor=none;" parent="1" vertex="1">
          <mxGeometry x="-403" y="-1191" width="33" height="26" as="geometry" />
        </mxCell>
        <mxCell id="mkvjJBD6ZaT9gyc5c3pc-117" value="Yes" style="text;html=1;align=center;verticalAlign=middle;resizable=0;points=[];autosize=1;strokeColor=none;fillColor=none;" parent="1" vertex="1">
          <mxGeometry x="-513.5" y="-909" width="38" height="26" as="geometry" />
        </mxCell>
        <mxCell id="mkvjJBD6ZaT9gyc5c3pc-118" value="No" style="text;html=1;align=center;verticalAlign=middle;resizable=0;points=[];autosize=1;strokeColor=none;fillColor=none;" parent="1" vertex="1">
          <mxGeometry x="-472" y="-848" width="33" height="26" as="geometry" />
        </mxCell>
        <mxCell id="mkvjJBD6ZaT9gyc5c3pc-119" value="Yes" style="text;html=1;align=center;verticalAlign=middle;resizable=0;points=[];autosize=1;strokeColor=none;fillColor=none;" parent="1" vertex="1">
          <mxGeometry x="-513.5" y="-750" width="38" height="26" as="geometry" />
        </mxCell>
        <mxCell id="mkvjJBD6ZaT9gyc5c3pc-120" value="No" style="text;html=1;align=center;verticalAlign=middle;resizable=0;points=[];autosize=1;strokeColor=none;fillColor=none;" parent="1" vertex="1">
          <mxGeometry x="-472" y="-688" width="33" height="26" as="geometry" />
        </mxCell>
        <mxCell id="mkvjJBD6ZaT9gyc5c3pc-121" value="No" style="text;html=1;align=center;verticalAlign=middle;resizable=0;points=[];autosize=1;strokeColor=none;fillColor=none;" parent="1" vertex="1">
          <mxGeometry x="-472" y="-528" width="33" height="26" as="geometry" />
        </mxCell>
        <mxCell id="mkvjJBD6ZaT9gyc5c3pc-123" value="No" style="text;html=1;align=center;verticalAlign=middle;resizable=0;points=[];autosize=1;strokeColor=none;fillColor=none;" parent="1" vertex="1">
          <mxGeometry x="-472" y="-369" width="33" height="26" as="geometry" />
        </mxCell>
        <mxCell id="mkvjJBD6ZaT9gyc5c3pc-124" value="No" style="text;html=1;align=center;verticalAlign=middle;resizable=0;points=[];autosize=1;strokeColor=none;fillColor=none;" parent="1" vertex="1">
          <mxGeometry x="-508.5" y="-267" width="33" height="26" as="geometry" />
        </mxCell>
        <mxCell id="mkvjJBD6ZaT9gyc5c3pc-125" value="Yes" style="text;html=1;align=center;verticalAlign=middle;resizable=0;points=[];autosize=1;strokeColor=none;fillColor=none;" parent="1" vertex="1">
          <mxGeometry x="-513" y="-590" width="38" height="26" as="geometry" />
        </mxCell>
        <mxCell id="mkvjJBD6ZaT9gyc5c3pc-126" value="Yes" style="text;html=1;align=center;verticalAlign=middle;resizable=0;points=[];autosize=1;strokeColor=none;fillColor=none;" parent="1" vertex="1">
          <mxGeometry x="-515.5" y="-429" width="38" height="26" as="geometry" />
        </mxCell>
        <mxCell id="mkvjJBD6ZaT9gyc5c3pc-127" value="Yes" style="text;html=1;align=center;verticalAlign=middle;resizable=0;points=[];autosize=1;strokeColor=none;fillColor=none;" parent="1" vertex="1">
          <mxGeometry x="-405.5" y="-267" width="38" height="26" as="geometry" />
        </mxCell>
        <mxCell id="mkvjJBD6ZaT9gyc5c3pc-128" value="Yes" style="text;html=1;align=center;verticalAlign=middle;resizable=0;points=[];autosize=1;strokeColor=none;fillColor=none;" parent="1" vertex="1">
          <mxGeometry x="-179" y="-909" width="38" height="26" as="geometry" />
        </mxCell>
        <mxCell id="mkvjJBD6ZaT9gyc5c3pc-129" value="No" style="text;html=1;align=center;verticalAlign=middle;resizable=0;points=[];autosize=1;strokeColor=none;fillColor=none;" parent="1" vertex="1">
          <mxGeometry x="-215" y="-848" width="33" height="26" as="geometry" />
        </mxCell>
        <mxCell id="mkvjJBD6ZaT9gyc5c3pc-131" value="No" style="text;html=1;align=center;verticalAlign=middle;resizable=0;points=[];autosize=1;strokeColor=none;fillColor=none;" parent="1" vertex="1">
          <mxGeometry x="-179" y="-748" width="33" height="26" as="geometry" />
        </mxCell>
        <mxCell id="mkvjJBD6ZaT9gyc5c3pc-133" value="Yes" style="text;html=1;align=center;verticalAlign=middle;resizable=0;points=[];autosize=1;strokeColor=none;fillColor=none;" parent="1" vertex="1">
          <mxGeometry x="-215" y="-684" width="38" height="26" as="geometry" />
        </mxCell>
        <mxCell id="mkvjJBD6ZaT9gyc5c3pc-135" value="" style="endArrow=classic;html=1;rounded=0;entryX=0;entryY=0;entryDx=0;entryDy=0;" parent="1" target="mkvjJBD6ZaT9gyc5c3pc-17" edge="1">
          <mxGeometry width="50" height="50" relative="1" as="geometry">
            <mxPoint x="-541" y="-1472" as="sourcePoint" />
            <mxPoint x="-509" y="-1477" as="targetPoint" />
          </mxGeometry>
        </mxCell>
        <mxCell id="mkvjJBD6ZaT9gyc5c3pc-136" value="" style="endArrow=classic;html=1;rounded=0;entryX=0;entryY=0;entryDx=0;entryDy=0;" parent="1" target="mkvjJBD6ZaT9gyc5c3pc-13" edge="1">
          <mxGeometry width="50" height="50" relative="1" as="geometry">
            <mxPoint x="-380" y="-1472" as="sourcePoint" />
            <mxPoint x="-338" y="-1472" as="targetPoint" />
          </mxGeometry>
        </mxCell>
        <mxCell id="mkvjJBD6ZaT9gyc5c3pc-138" value="" style="endArrow=classic;html=1;rounded=0;entryX=0;entryY=0;entryDx=0;entryDy=0;" parent="1" target="mkvjJBD6ZaT9gyc5c3pc-44" edge="1">
          <mxGeometry width="50" height="50" relative="1" as="geometry">
            <mxPoint x="-702" y="-904" as="sourcePoint" />
            <mxPoint x="-662" y="-904" as="targetPoint" />
          </mxGeometry>
        </mxCell>
        <mxCell id="mkvjJBD6ZaT9gyc5c3pc-139" value="" style="endArrow=classic;html=1;rounded=0;entryX=0.102;entryY=0.21;entryDx=0;entryDy=0;entryPerimeter=0;" parent="1" target="mkvjJBD6ZaT9gyc5c3pc-58" edge="1">
          <mxGeometry width="50" height="50" relative="1" as="geometry">
            <mxPoint x="-719" y="-583" as="sourcePoint" />
            <mxPoint x="-677" y="-583" as="targetPoint" />
          </mxGeometry>
        </mxCell>
        <mxCell id="mkvjJBD6ZaT9gyc5c3pc-141" value="" style="endArrow=classic;html=1;rounded=0;entryX=0.113;entryY=0.149;entryDx=0;entryDy=0;entryPerimeter=0;" parent="1" target="mkvjJBD6ZaT9gyc5c3pc-62" edge="1">
          <mxGeometry width="50" height="50" relative="1" as="geometry">
            <mxPoint x="-722" y="-425" as="sourcePoint" />
            <mxPoint x="-680" y="-425" as="targetPoint" />
          </mxGeometry>
        </mxCell>
      </root>
    </mxGraphModel>
  </diagram>
</mxfile>
